<?xml version="1.0" encoding="UTF-8"?>
<svg xmlns="http://www.w3.org/2000/svg" viewBox="0 0 300 350" width="300" height="350" role="img" aria-label="Samenwerking Voetbalverenigingen Soest">
    <defs>
      <clipPath id="svs-shield-clip">
        <path d="M150,14 C112,14 66,32 34,52 L34,156 C34,240 82,296 150,326 C218,296 266,240 266,156 L266,52 C234,32 188,14 150,14 Z"/>
      </clipPath>
    </defs>
    <g clip-path="url(#svs-shield-clip)">
      <rect x="0" y="0" width="150" height="340" fill="#35A044"/>
      <rect x="150" y="0" width="150" height="340" fill="#1B4F91"/>
    </g>
    <path d="M150,14 C112,14 66,32 34,52 L34,156 C34,240 82,296 150,326 C218,296 266,240 266,156 L266,52 C234,32 188,14 150,14 Z" fill="none" stroke="#0B2A52" stroke-width="5"/>

    <path fill="#FFFFFF" d="M80.109619140625 48.1611328125Q78.798583984375 48.1611328125 77.828125 47.75830078125Q76.857666015625 47.35546875 76.315673828125 46.564453125Q75.773681640625 45.7734375 75.744384765625 44.6162109375H77.919677734375Q77.963623046875 45.16552734375 78.249267578125 45.535400390625Q78.534912109375 45.9052734375 79.010986328125 46.08837890625Q79.487060546875 46.271484375 80.087646484375 46.271484375Q80.688232421875 46.271484375 81.13134765625 46.099365234375Q81.574462890625 45.92724609375 81.823486328125 45.6123046875Q82.072509765625 45.29736328125 82.072509765625 44.8798828125Q82.072509765625 44.50634765625 81.84912109375 44.253662109375Q81.625732421875 44.0009765625 81.208251953125 43.81787109375Q80.790771484375 43.634765625 80.190185546875 43.49560546875L78.989013671875 43.1953125Q77.604736328125 42.8583984375 76.821044921875 42.136962890625Q76.037353515625 41.41552734375 76.037353515625 40.22900390625Q76.037353515625 39.240234375 76.568359375 38.50048828125Q77.099365234375 37.7607421875 78.02587890625 37.3505859375Q78.952392578125 36.9404296875 80.138916015625 36.9404296875Q81.347412109375 36.9404296875 82.248291015625 37.354248046875Q83.149169921875 37.76806640625 83.654541015625 38.504150390625Q84.159912109375 39.240234375 84.174560546875 40.19970703125H82.013916015625Q81.955322265625 39.54052734375 81.45361328125 39.181640625Q80.951904296875 38.82275390625 80.116943359375 38.82275390625Q79.552978515625 38.82275390625 79.150146484375 38.98388671875Q78.747314453125 39.14501953125 78.534912109375 39.4306640625Q78.322509765625 39.71630859375 78.322509765625 40.08251953125Q78.322509765625 40.4853515625 78.56787109375 40.752685546875Q78.813232421875 41.02001953125 79.21240234375 41.184814453125Q79.611572265625 41.349609375 80.072998046875 41.45947265625L81.061767578125 41.701171875Q81.750244140625 41.85498046875 82.343505859375 42.11865234375Q82.936767578125 42.38232421875 83.383544921875 42.766845703125Q83.830322265625 43.1513671875 84.07568359375 43.6787109375Q84.321044921875 44.2060546875 84.321044921875 44.89453125Q84.321044921875 45.88330078125 83.822998046875 46.619384765625Q83.324951171875 47.35546875 82.380126953125 47.75830078125Q81.435302734375 48.1611328125 80.109619140625 48.1611328125ZM87.302490234375 48.0 91.030517578125 37.0869140625H93.960205078125L97.783447265625 48.0H95.300537109375L93.550048828125 42.73388671875Q93.235107421875 41.7158203125 92.9091796875 40.503662109375Q92.583251953125 39.29150390625 92.224365234375 37.85595703125H92.707763671875Q92.363525390625 39.298828125 92.0595703125 40.518310546875Q91.755615234375 41.73779296875 91.455322265625 42.73388671875L89.770751953125 48.0ZM89.631591796875 45.4658203125V43.71533203125H95.454345703125V45.4658203125ZM101.131103515625 48.0V37.0869140625H104.558837890625L106.331298828125 42.0966796875Q106.441162109375 42.4482421875 106.583984375 43.0048828125Q106.726806640625 43.5615234375 106.873291015625 44.2060546875Q107.019775390625 44.8505859375 107.14794921875 45.45849609375Q107.276123046875 46.06640625 107.356689453125 46.51318359375H106.924560546875Q107.005126953125 46.07373046875 107.13330078125 45.469482421875Q107.261474609375 44.865234375 107.407958984375 44.220703125Q107.554443359375 43.576171875 107.697265625 43.01220703125Q107.840087890625 42.4482421875 107.949951171875 42.0966796875L109.693115234375 37.0869140625H113.135498046875V48.0H110.886962890625V42.85107421875Q110.886962890625 42.49951171875 110.901611328125 41.96484375Q110.916259765625 41.43017578125 110.930908203125 40.811279296875Q110.945556640625 40.1923828125 110.960205078125 39.566162109375Q110.974853515625 38.93994140625 110.982177734375 38.38330078125H111.121337890625Q110.982177734375 38.9912109375 110.813720703125 39.639404296875Q110.645263671875 40.28759765625 110.47314453125 40.8955078125Q110.301025390625 41.50341796875 110.147216796875 42.012451171875Q109.993408203125 42.521484375 109.883544921875 42.85107421875L108.074462890625 48.0H106.192138671875L104.353759765625 42.85107421875Q104.243896484375 42.521484375 104.090087890625 42.019775390625Q103.936279296875 41.51806640625 103.76416015625 40.91015625Q103.592041015625 40.30224609375 103.416259765625 39.654052734375Q103.240478515625 39.005859375 103.079345703125 38.38330078125H103.255126953125Q103.262451171875 38.91064453125 103.277099609375 39.533203125Q103.291748046875 40.15576171875 103.31005859375 40.781982421875Q103.328369140625 41.408203125 103.33935546875 41.946533203125Q103.350341796875 42.48486328125 103.350341796875 42.85107421875V48.0ZM117.105712890625 48.0V37.0869140625H124.407958984375V38.93994140625H119.339599609375V41.57666015625H124.019775390625V43.400390625H119.339599609375V46.14697265625H124.422607421875V48.0ZM128.217041015625 48.0V37.0869140625H130.707275390625L134.156982421875 42.609375Q134.420654296875 43.0341796875 134.691650390625 43.5322265625Q134.962646484375 44.0302734375 135.24462890625 44.63818359375Q135.526611328125 45.24609375 135.804931640625 46.0078125H135.577880859375Q135.526611328125 45.39990234375 135.486328125 44.71142578125Q135.446044921875 44.02294921875 135.416748046875 43.39306640625Q135.387451171875 42.76318359375 135.387451171875 42.32373046875V37.0869140625H137.672607421875V48.0H135.175048828125L132.040283203125 42.990234375Q131.696044921875 42.42626953125 131.403076171875 41.895263671875Q131.110107421875 41.3642578125 130.79150390625 40.7197265625Q130.472900390625 40.0751953125 130.033447265625 39.18896484375H130.319091796875Q130.363037109375 39.97998046875 130.406982421875 40.705078125Q130.450927734375 41.43017578125 130.4765625 42.019775390625Q130.502197265625 42.609375 130.502197265625 42.98291015625V48.0ZM143.949951171875 48.0 141.020263671875 37.0869140625H143.459228515625L144.726318359375 42.45556640625Q144.880126953125 43.12939453125 145.00830078125 43.894775390625Q145.136474609375 44.66015625 145.260986328125 45.432861328125Q145.385498046875 46.20556640625 145.502685546875 46.916015625H145.107177734375Q145.239013671875 46.20556640625 145.370849609375 45.432861328125Q145.502685546875 44.66015625 145.641845703125 43.894775390625Q145.781005859375 43.12939453125 145.949462890625 42.45556640625L147.282470703125 37.0869140625H149.604248046875L150.929931640625 42.45556640625Q151.098388671875 43.12939453125 151.237548828125 43.894775390625Q151.376708984375 44.66015625 151.51220703125 45.432861328125Q151.647705078125 46.20556640625 151.779541015625 46.916015625H151.369384765625Q151.493896484375 46.20556640625 151.61474609375 45.432861328125Q151.735595703125 44.66015625 151.87109375 43.894775390625Q152.006591796875 43.12939453125 152.153076171875 42.45556640625L153.420166015625 37.0869140625H155.866455078125L152.929443359375 48.0H150.380615234375L148.930419921875 42.4189453125Q148.696044921875 41.48876953125 148.53125 40.401123046875Q148.366455078125 39.3134765625 148.161376953125 38.1708984375H148.718017578125Q148.490966796875 39.29150390625 148.34814453125 40.36083984375Q148.205322265625 41.43017578125 147.948974609375 42.4189453125L146.506103515625 48.0ZM159.214111328125 48.0V37.0869140625H166.516357421875V38.93994140625H161.447998046875V41.57666015625H166.128173828125V43.400390625H161.447998046875V46.14697265625H166.531005859375V48.0ZM170.325439453125 48.0V37.0869140625H174.580810546875Q175.825927734375 37.0869140625 176.697509765625 37.5263671875Q177.569091796875 37.9658203125 178.02685546875 38.76416015625Q178.484619140625 39.5625 178.484619140625 40.63916015625Q178.484619140625 41.7158203125 178.01953125 42.495849609375Q177.554443359375 43.27587890625 176.671875 43.689697265625Q175.789306640625 44.103515625 174.529541015625 44.103515625H171.643798828125V42.29443359375H174.170654296875Q174.859130859375 42.29443359375 175.298583984375 42.107666015625Q175.738037109375 41.9208984375 175.957763671875 41.551025390625Q176.177490234375 41.18115234375 176.177490234375 40.63916015625Q176.177490234375 40.08251953125 175.957763671875 39.705322265625Q175.738037109375 39.328125 175.294921875 39.13037109375Q174.851806640625 38.9326171875 174.163330078125 38.9326171875H172.559326171875V48.0ZM176.397216796875 48.0 173.738525390625 43.0341796875H176.162841796875L178.872802734375 48.0ZM183.824462890625 45.53173828125V43.49560546875Q184.161376953125 42.8876953125 184.483642578125 42.375Q184.805908203125 41.8623046875 185.194091796875 41.345947265625Q185.582275390625 40.82958984375 186.080322265625 40.2216796875L188.753662109375 37.0869140625H191.485595703125L186.878662109375 42.4189453125L186.695556640625 42.35302734375ZM182.176513671875 48.0V37.0869140625H184.410400390625V40.06787109375L184.366455078125 42.85107421875L184.410400390625 43.9423828125V48.0ZM188.958740234375 48.0 185.721435546875 43.078125 187.135009765625 41.408203125 191.602783203125 48.0ZM197.198974609375 37.0869140625V48.0H194.965087890625V37.0869140625ZM201.176513671875 48.0V37.0869140625H203.666748046875L207.116455078125 42.609375Q207.380126953125 43.0341796875 207.651123046875 43.5322265625Q207.922119140625 44.0302734375 208.2041015625 44.63818359375Q208.486083984375 45.24609375 208.764404296875 46.0078125H208.537353515625Q208.486083984375 45.39990234375 208.44580078125 44.71142578125Q208.405517578125 44.02294921875 208.376220703125 43.39306640625Q208.346923828125 42.76318359375 208.346923828125 42.32373046875V37.0869140625H210.632080078125V48.0H208.134521484375L204.999755859375 42.990234375Q204.655517578125 42.42626953125 204.362548828125 41.895263671875Q204.069580078125 41.3642578125 203.7509765625 40.7197265625Q203.432373046875 40.0751953125 202.992919921875 39.18896484375H203.278564453125Q203.322509765625 39.97998046875 203.366455078125 40.705078125Q203.410400390625 41.43017578125 203.43603515625 42.019775390625Q203.461669921875 42.609375 203.461669921875 42.98291015625V48.0ZM219.443603515625 48.146484375Q217.912841796875 48.146484375 216.75927734375 47.468994140625Q215.605712890625 46.79150390625 214.95751953125 45.535400390625Q214.309326171875 44.279296875 214.309326171875 42.55810546875Q214.309326171875 40.78564453125 214.983154296875 39.529541015625Q215.656982421875 38.2734375 216.806884765625 37.60693359375Q217.956787109375 36.9404296875 219.392333984375 36.9404296875Q220.315185546875 36.9404296875 221.10986328125 37.207763671875Q221.904541015625 37.47509765625 222.5234375 37.9658203125Q223.142333984375 38.45654296875 223.5341796875 39.126708984375Q223.926025390625 39.796875 224.043212890625 40.6025390625H221.772705078125Q221.655517578125 40.21435546875 221.44677734375 39.903076171875Q221.238037109375 39.591796875 220.94140625 39.3720703125Q220.644775390625 39.15234375 220.263916015625 39.038818359375Q219.883056640625 38.92529296875 219.428955078125 38.92529296875Q218.586669921875 38.92529296875 217.942138671875 39.346435546875Q217.297607421875 39.767578125 216.938720703125 40.5732421875Q216.579833984375 41.37890625 216.579833984375 42.5361328125Q216.579833984375 43.693359375 216.93505859375 44.502685546875Q217.290283203125 45.31201171875 217.934814453125 45.73681640625Q218.579345703125 46.16162109375 219.458251953125 46.16162109375Q220.249267578125 46.16162109375 220.813232421875 45.8759765625Q221.377197265625 45.59033203125 221.68115234375 45.06298828125Q221.985107421875 44.53564453125 221.985107421875 43.81787109375L222.453857421875 43.8837890625H219.612060546875V42.1845703125H224.153076171875V43.546875Q224.153076171875 44.982421875 223.545166015625 46.011474609375Q222.937255859375 47.04052734375 221.875244140625 47.593505859375Q220.813232421875 48.146484375 219.443603515625 48.146484375Z"/>
    <path fill="#FFFFFF" d="M64.412353515625 68.0 61.098876953125 58.5419921875H63.250732421875L64.761474609375 63.10595703125Q65.034423828125 63.96923828125 65.313720703125 65.007080078125Q65.593017578125 66.044921875 65.904052734375 67.2763671875H65.485107421875Q65.789794921875 66.0322265625 66.056396484375 65.000732421875Q66.322998046875 63.96923828125 66.583251953125 63.10595703125L68.043212890625 58.5419921875H70.182373046875L66.945068359375 68.0ZM76.501708984375 68.126953125Q75.251220703125 68.126953125 74.25146484375 67.5556640625Q73.251708984375 66.984375 72.6708984375 65.89892578125Q72.090087890625 64.8134765625 72.090087890625 63.27734375Q72.090087890625 61.73486328125 72.6708984375 60.646240234375Q73.251708984375 59.5576171875 74.25146484375 58.986328125Q75.251220703125 58.4150390625 76.501708984375 58.4150390625Q77.758544921875 58.4150390625 78.755126953125 58.986328125Q79.751708984375 59.5576171875 80.33251953125 60.646240234375Q80.913330078125 61.73486328125 80.913330078125 63.27734375Q80.913330078125 64.8134765625 80.33251953125 65.89892578125Q79.751708984375 66.984375 78.755126953125 67.5556640625Q77.758544921875 68.126953125 76.501708984375 68.126953125ZM76.501708984375 66.40673828125Q77.238037109375 66.40673828125 77.787109375 66.048095703125Q78.336181640625 65.689453125 78.640869140625 64.988037109375Q78.945556640625 64.28662109375 78.945556640625 63.27734375Q78.945556640625 62.25537109375 78.640869140625 61.553955078125Q78.336181640625 60.8525390625 77.787109375 60.493896484375Q77.238037109375 60.13525390625 76.501708984375 60.13525390625Q75.771728515625 60.13525390625 75.219482421875 60.4970703125Q74.667236328125 60.85888671875 74.362548828125 61.560302734375Q74.057861328125 62.26171875 74.057861328125 63.27734375Q74.057861328125 64.28662109375 74.362548828125 64.98486328125Q74.667236328125 65.68310546875 75.219482421875 66.044921875Q75.771728515625 66.40673828125 76.501708984375 66.40673828125ZM83.366943359375 68.0V58.5419921875H89.695556640625V60.14794921875H85.302978515625V62.43310546875H89.359130859375V64.013671875H85.302978515625V66.39404296875H89.708251953125V68.0ZM91.882568359375 60.14794921875V58.5419921875H99.607666015625V60.14794921875H96.719482421875V68.0H94.777099609375V60.14794921875ZM101.940673828125 68.0V58.5419921875H105.692138671875Q106.733154296875 58.5419921875 107.42822265625 58.856201171875Q108.123291015625 59.17041015625 108.46923828125 59.71630859375Q108.815185546875 60.26220703125 108.815185546875 60.97314453125Q108.815185546875 61.53173828125 108.593017578125 61.947509765625Q108.370849609375 62.36328125 107.98681640625 62.626708984375Q107.602783203125 62.89013671875 107.114013671875 63.00439453125V63.099609375Q107.647216796875 63.11865234375 108.1201171875 63.401123046875Q108.593017578125 63.68359375 108.88818359375 64.188232421875Q109.183349609375 64.69287109375 109.183349609375 65.3974609375Q109.183349609375 66.14013671875 108.815185546875 66.73046875Q108.447021484375 67.32080078125 107.7265625 67.660400390625Q107.006103515625 68.0 105.933349609375 68.0ZM103.876708984375 66.40673828125H105.552490234375Q106.403076171875 66.40673828125 106.796630859375 66.07666015625Q107.190185546875 65.74658203125 107.190185546875 65.21337890625Q107.190185546875 64.80712890625 106.99658203125 64.499267578125Q106.802978515625 64.19140625 106.447509765625 64.016845703125Q106.092041015625 63.84228515625 105.603271484375 63.84228515625H103.876708984375ZM103.876708984375 62.515625H105.406494140625Q105.819091796875 62.515625 106.149169921875 62.366455078125Q106.479248046875 62.21728515625 106.66650390625 61.941162109375Q106.853759765625 61.6650390625 106.853759765625 61.2841796875Q106.853759765625 60.77001953125 106.48876953125 60.4462890625Q106.123779296875 60.12255859375 105.444580078125 60.12255859375H103.876708984375ZM110.995849609375 68.0 114.226806640625 58.5419921875H116.765869140625L120.079345703125 68.0H117.927490234375L116.410400390625 63.43603515625Q116.137451171875 62.5537109375 115.85498046875 61.503173828125Q115.572509765625 60.45263671875 115.261474609375 59.20849609375H115.680419921875Q115.382080078125 60.458984375 115.11865234375 61.515869140625Q114.855224609375 62.57275390625 114.594970703125 63.43603515625L113.135009765625 68.0ZM113.014404296875 65.8037109375V64.28662109375H118.060791015625V65.8037109375ZM122.247314453125 68.0V58.5419921875H124.183349609375V66.39404296875H128.264892578125V68.0ZM133.365478515625 68.0 130.052001953125 58.5419921875H132.203857421875L133.714599609375 63.10595703125Q133.987548828125 63.96923828125 134.266845703125 65.007080078125Q134.546142578125 66.044921875 134.857177734375 67.2763671875H134.438232421875Q134.742919921875 66.0322265625 135.009521484375 65.000732421875Q135.276123046875 63.96923828125 135.536376953125 63.10595703125L136.996337890625 58.5419921875H139.135498046875L135.898193359375 68.0ZM141.303466796875 68.0V58.5419921875H147.632080078125V60.14794921875H143.239501953125V62.43310546875H147.295654296875V64.013671875H143.239501953125V66.39404296875H147.644775390625V68.0ZM150.199951171875 68.0V58.5419921875H153.887939453125Q154.967041015625 58.5419921875 155.722412109375 58.9228515625Q156.477783203125 59.3037109375 156.87451171875 59.99560546875Q157.271240234375 60.6875 157.271240234375 61.62060546875Q157.271240234375 62.5537109375 156.8681640625 63.229736328125Q156.465087890625 63.90576171875 155.7001953125 64.264404296875Q154.935302734375 64.623046875 153.843505859375 64.623046875H151.342529296875V63.05517578125H153.532470703125Q154.129150390625 63.05517578125 154.510009765625 62.893310546875Q154.890869140625 62.7314453125 155.081298828125 62.410888671875Q155.271728515625 62.09033203125 155.271728515625 61.62060546875Q155.271728515625 61.13818359375 155.081298828125 60.811279296875Q154.890869140625 60.484375 154.5068359375 60.31298828125Q154.122802734375 60.1416015625 153.526123046875 60.1416015625H152.135986328125V68.0ZM155.462158203125 68.0 153.157958984375 63.6962890625H155.259033203125L157.607666015625 68.0ZM159.737548828125 68.0V58.5419921875H166.066162109375V60.14794921875H161.673583984375V62.43310546875H165.729736328125V64.013671875H161.673583984375V66.39404296875H166.078857421875V68.0ZM168.634033203125 68.0V58.5419921875H170.792236328125L173.781982421875 63.328125Q174.010498046875 63.6962890625 174.245361328125 64.1279296875Q174.480224609375 64.5595703125 174.724609375 65.08642578125Q174.968994140625 65.61328125 175.210205078125 66.2734375H175.013427734375Q174.968994140625 65.74658203125 174.93408203125 65.14990234375Q174.899169921875 64.55322265625 174.873779296875 64.00732421875Q174.848388671875 63.46142578125 174.848388671875 63.08056640625V58.5419921875H176.828857421875V68.0H174.664306640625L171.947509765625 63.658203125Q171.649169921875 63.16943359375 171.395263671875 62.709228515625Q171.141357421875 62.2490234375 170.865234375 61.6904296875Q170.589111328125 61.1318359375 170.208251953125 60.36376953125H170.455810546875Q170.493896484375 61.04931640625 170.531982421875 61.677734375Q170.570068359375 62.30615234375 170.59228515625 62.817138671875Q170.614501953125 63.328125 170.614501953125 63.65185546875V68.0ZM181.478759765625 58.5419921875V68.0H179.542724609375V58.5419921875ZM188.382080078125 68.126953125Q187.055419921875 68.126953125 186.0556640625 67.539794921875Q185.055908203125 66.95263671875 184.494140625 65.864013671875Q183.932373046875 64.775390625 183.932373046875 63.28369140625Q183.932373046875 61.74755859375 184.516357421875 60.658935546875Q185.100341796875 59.5703125 186.096923828125 58.99267578125Q187.093505859375 58.4150390625 188.337646484375 58.4150390625Q189.137451171875 58.4150390625 189.826171875 58.646728515625Q190.514892578125 58.87841796875 191.05126953125 59.3037109375Q191.587646484375 59.72900390625 191.92724609375 60.309814453125Q192.266845703125 60.890625 192.368408203125 61.5888671875H190.400634765625Q190.299072265625 61.25244140625 190.1181640625 60.982666015625Q189.937255859375 60.712890625 189.68017578125 60.5224609375Q189.423095703125 60.33203125 189.093017578125 60.233642578125Q188.762939453125 60.13525390625 188.369384765625 60.13525390625Q187.639404296875 60.13525390625 187.080810546875 60.500244140625Q186.522216796875 60.865234375 186.211181640625 61.5634765625Q185.900146484375 62.26171875 185.900146484375 63.2646484375Q185.900146484375 64.267578125 186.2080078125 64.968994140625Q186.515869140625 65.67041015625 187.074462890625 66.03857421875Q187.633056640625 66.40673828125 188.394775390625 66.40673828125Q189.080322265625 66.40673828125 189.569091796875 66.1591796875Q190.057861328125 65.91162109375 190.3212890625 65.45458984375Q190.584716796875 64.99755859375 190.584716796875 64.37548828125L190.990966796875 64.4326171875H188.528076171875V62.9599609375H192.463623046875V64.140625Q192.463623046875 65.384765625 191.936767578125 66.276611328125Q191.409912109375 67.16845703125 190.489501953125 67.647705078125Q189.569091796875 68.126953125 188.382080078125 68.126953125ZM196.885009765625 58.5419921875V68.0H194.948974609375V58.5419921875ZM199.598876953125 68.0V58.5419921875H201.757080078125L204.746826171875 63.328125Q204.975341796875 63.6962890625 205.210205078125 64.1279296875Q205.445068359375 64.5595703125 205.689453125 65.08642578125Q205.933837890625 65.61328125 206.175048828125 66.2734375H205.978271484375Q205.933837890625 65.74658203125 205.89892578125 65.14990234375Q205.864013671875 64.55322265625 205.838623046875 64.00732421875Q205.813232421875 63.46142578125 205.813232421875 63.08056640625V58.5419921875H207.793701171875V68.0H205.629150390625L202.912353515625 63.658203125Q202.614013671875 63.16943359375 202.360107421875 62.709228515625Q202.106201171875 62.2490234375 201.830078125 61.6904296875Q201.553955078125 61.1318359375 201.173095703125 60.36376953125H201.420654296875Q201.458740234375 61.04931640625 201.496826171875 61.677734375Q201.534912109375 62.30615234375 201.55712890625 62.817138671875Q201.579345703125 63.328125 201.579345703125 63.65185546875V68.0ZM214.697021484375 68.126953125Q213.370361328125 68.126953125 212.37060546875 67.539794921875Q211.370849609375 66.95263671875 210.80908203125 65.864013671875Q210.247314453125 64.775390625 210.247314453125 63.28369140625Q210.247314453125 61.74755859375 210.831298828125 60.658935546875Q211.415283203125 59.5703125 212.411865234375 58.99267578125Q213.408447265625 58.4150390625 214.652587890625 58.4150390625Q215.452392578125 58.4150390625 216.14111328125 58.646728515625Q216.829833984375 58.87841796875 217.3662109375 59.3037109375Q217.902587890625 59.72900390625 218.2421875 60.309814453125Q218.581787109375 60.890625 218.683349609375 61.5888671875H216.715576171875Q216.614013671875 61.25244140625 216.43310546875 60.982666015625Q216.252197265625 60.712890625 215.9951171875 60.5224609375Q215.738037109375 60.33203125 215.407958984375 60.233642578125Q215.077880859375 60.13525390625 214.684326171875 60.13525390625Q213.954345703125 60.13525390625 213.395751953125 60.500244140625Q212.837158203125 60.865234375 212.526123046875 61.5634765625Q212.215087890625 62.26171875 212.215087890625 63.2646484375Q212.215087890625 64.267578125 212.52294921875 64.968994140625Q212.830810546875 65.67041015625 213.389404296875 66.03857421875Q213.947998046875 66.40673828125 214.709716796875 66.40673828125Q215.395263671875 66.40673828125 215.884033203125 66.1591796875Q216.372802734375 65.91162109375 216.63623046875 65.45458984375Q216.899658203125 64.99755859375 216.899658203125 64.37548828125L217.305908203125 64.4326171875H214.843017578125V62.9599609375H218.778564453125V64.140625Q218.778564453125 65.384765625 218.251708984375 66.276611328125Q217.724853515625 67.16845703125 216.804443359375 67.647705078125Q215.884033203125 68.126953125 214.697021484375 68.126953125ZM221.263916015625 68.0V58.5419921875H227.592529296875V60.14794921875H223.199951171875V62.43310546875H227.256103515625V64.013671875H223.199951171875V66.39404296875H227.605224609375V68.0ZM230.160400390625 68.0V58.5419921875H232.318603515625L235.308349609375 63.328125Q235.536865234375 63.6962890625 235.771728515625 64.1279296875Q236.006591796875 64.5595703125 236.2509765625 65.08642578125Q236.495361328125 65.61328125 236.736572265625 66.2734375H236.539794921875Q236.495361328125 65.74658203125 236.46044921875 65.14990234375Q236.425537109375 64.55322265625 236.400146484375 64.00732421875Q236.374755859375 63.46142578125 236.374755859375 63.08056640625V58.5419921875H238.355224609375V68.0H236.190673828125L233.473876953125 63.658203125Q233.175537109375 63.16943359375 232.921630859375 62.709228515625Q232.667724609375 62.2490234375 232.3916015625 61.6904296875Q232.115478515625 61.1318359375 231.734619140625 60.36376953125H231.982177734375Q232.020263671875 61.04931640625 232.058349609375 61.677734375Q232.096435546875 62.30615234375 232.11865234375 62.817138671875Q232.140869140625 63.328125 232.140869140625 63.65185546875V68.0Z"/>

    <g fill="#FFFFFF" aria-label="VVZ'49">
      <text x="46.5" y="96" font-family="Arial, sans-serif" font-weight="800" font-size="15">VVZ'49</text>
    </g>
    <g fill="#FFFFFF" aria-label="So Soest">
      <text x="213.6" y="96" font-family="Arial, sans-serif" font-weight="800" font-size="15">So Soest</text>
    </g>

    <g transform="translate(150,146)">
      <circle r="52" fill="#FFFFFF"/>
      <circle r="52" fill="none" stroke="#0B2A52" stroke-width="3"/>
    </g>

        <g fill="#FFFFFF" aria-label="Vijf sterren">
      <polygon points="106.00,205.50 107.82,210.49 113.13,210.68 108.95,213.96 110.41,219.07 106.00,216.10 101.59,219.07 103.05,213.96 98.87,210.68 104.18,210.49"/>
      <polygon points="128.00,205.50 129.82,210.49 135.13,210.68 130.95,213.96 132.41,219.07 128.00,216.10 123.59,219.07 125.05,213.96 120.87,210.68 126.18,210.49"/>
      <polygon points="150.00,205.50 151.82,210.49 157.13,210.68 152.95,213.96 154.41,219.07 150.00,216.10 145.59,219.07 147.05,213.96 142.87,210.68 148.18,210.49"/>
      <polygon points="172.00,205.50 173.82,210.49 179.13,210.68 174.95,213.96 176.41,219.07 172.00,216.10 167.59,219.07 169.05,213.96 164.87,210.68 170.18,210.49"/>
      <polygon points="194.00,205.50 195.82,210.49 201.13,210.68 196.95,213.96 198.41,219.07 194.00,216.10 189.59,219.07 191.05,213.96 186.87,210.68 192.18,210.49"/>
    </g>
    <rect x="14" y="224" width="272" height="76" rx="8" fill="#0B2A52"/>
    <path fill="#FFFFFF" d="M71.73770491803279 251.936V252.872H58.16393442622951V252.56Q58.16393442622951 250.22 56.721311475409834 248.66Q55.278688524590166 247.1 52.32786885245902 247.1Q49.44262295081967 247.1 47.90163934426229 248.11399999999998Q46.36065573770492 249.128 46.36065573770492 250.61Q46.36065573770492 252.716 48.459016393442624 253.73000000000002Q50.55737704918033 254.744 55.21311475409836 255.836Q60.65573770491803 257.162 64.16393442622952 258.605Q67.672131147541 260.048 70.29508196721312 263.324Q72.91803278688525 266.6 72.98360655737704 272.216Q72.98360655737704 281.73199999999997 67.57377049180327 286.33399999999995Q62.16393442622951 290.936 53.114754098360656 290.936Q42.55737704918033 290.936 36.68852459016394 286.724Q30.81967213114754 282.512 30.81967213114754 271.826H44.52459016393443Q44.52459016393443 275.882 46.29508196721312 277.247Q48.06557377049181 278.612 51.80327868852459 278.612Q54.55737704918033 278.612 56.36065573770492 277.91Q58.16393442622951 277.208 58.16393442622951 275.024Q58.16393442622951 273.074 56.16393442622951 272.09900000000005Q54.16393442622951 271.124 49.63934426229508 270.032Q44.131147540983605 268.628 40.52459016393443 267.10699999999997Q36.91803278688525 265.586 34.22950819672131 262.076Q31.540983606557376 258.566 31.540983606557376 252.56Q31.540983606557376 243.746 37.278688524590166 239.573Q43.016393442622956 235.4 51.80327868852459 235.4Q60.459016393442624 235.4 66.03278688524591 239.573Q71.60655737704919 243.746 71.73770491803279 251.936ZM127.01639344262296 263.168Q127.01639344262296 276.74 120.65573770491804 283.83799999999997Q114.29508196721311 290.936 102.62295081967213 290.936Q90.95081967213115 290.936 84.62295081967213 283.87699999999995Q78.29508196721311 276.818 78.29508196721311 263.168Q78.29508196721311 249.518 84.62295081967213 242.459Q90.95081967213115 235.4 102.62295081967213 235.4Q114.29508196721311 235.4 120.65573770491804 242.498Q127.01639344262296 249.596 127.01639344262296 263.168ZM93.11475409836065 260.672V265.664Q93.11475409836065 271.358 95.54098360655738 274.712Q97.96721311475409 278.066 102.62295081967213 278.066Q107.27868852459017 278.066 109.73770491803279 274.712Q112.19672131147541 271.358 112.19672131147541 265.664V260.672Q112.19672131147541 254.978 109.73770491803279 251.62400000000002Q107.27868852459017 248.27 102.62295081967213 248.27Q97.96721311475409 248.27 95.54098360655738 251.62400000000002Q93.11475409836065 254.978 93.11475409836065 260.672ZM134.81967213114754 236.336H173.8360655737705V249.20600000000002H149.31147540983605V256.616H170.2950819672131V268.94H149.31147540983605V277.13H174.2950819672131V290.0H134.81967213114754ZM221.04918032786884 251.936V252.872H207.47540983606555V252.56Q207.47540983606555 250.22 206.03278688524588 248.66Q204.59016393442622 247.1 201.63934426229508 247.1Q198.75409836065572 247.1 197.21311475409834 248.11399999999998Q195.67213114754097 249.128 195.67213114754097 250.61Q195.67213114754097 252.716 197.77049180327867 253.73000000000002Q199.86885245901638 254.744 204.52459016393442 255.836Q209.9672131147541 257.162 213.47540983606558 258.605Q216.98360655737704 260.048 219.60655737704917 263.324Q222.2295081967213 266.6 222.2950819672131 272.216Q222.2950819672131 281.73199999999997 216.88524590163934 286.33399999999995Q211.47540983606555 290.936 202.4262295081967 290.936Q191.86885245901638 290.936 186.0 286.724Q180.1311475409836 282.512 180.1311475409836 271.826H193.83606557377047Q193.83606557377047 275.882 195.60655737704917 277.247Q197.37704918032784 278.612 201.11475409836063 278.612Q203.86885245901638 278.612 205.67213114754097 277.91Q207.47540983606555 277.208 207.47540983606555 275.024Q207.47540983606555 273.074 205.47540983606555 272.09900000000005Q203.47540983606555 271.124 198.95081967213113 270.032Q193.44262295081967 268.628 189.8360655737705 267.10699999999997Q186.2295081967213 265.586 183.54098360655735 262.076Q180.85245901639342 258.566 180.85245901639342 252.56Q180.85245901639342 243.746 186.59016393442622 239.573Q192.327868852459 235.4 201.11475409836063 235.4Q209.77049180327867 235.4 215.34426229508196 239.573Q220.91803278688525 243.746 221.04918032786884 251.936ZM255.47540983606555 250.064V290.0H240.98360655737702V250.064H226.16393442622947V236.336H270.22950819672127V250.064Z"/>
  </svg>
